<mxfile host="app.diagrams.net" modified="2021-11-22T21:50:14.460Z" agent="5.0 (Windows NT 10.0; Win64; x64) AppleWebKit/537.36 (KHTML, like Gecko) Chrome/96.0.4664.45 Safari/537.36" etag="4pVRbmPSBKzduSYN8BDC" version="15.8.3" type="github">
  <diagram id="t8EwDglGM6JQJVfDdmRF" name="Page-1">
    <mxGraphModel dx="1422" dy="798" grid="1" gridSize="10" guides="1" tooltips="1" connect="1" arrows="1" fold="1" page="1" pageScale="1" pageWidth="850" pageHeight="1100" math="0" shadow="0">
      <root>
        <mxCell id="0" />
        <mxCell id="1" parent="0" />
        <mxCell id="hN5I1lcWyQj-tZNHHUBt-1" value="USER" style="shape=umlActor;verticalLabelPosition=bottom;verticalAlign=top;html=1;outlineConnect=0;" vertex="1" parent="1">
          <mxGeometry x="80" y="230" width="30" height="60" as="geometry" />
        </mxCell>
        <mxCell id="hN5I1lcWyQj-tZNHHUBt-5" value="HTTPÂ " style="swimlane;horizontal=0;startSize=23;" vertex="1" parent="1">
          <mxGeometry x="139" y="70" width="530" height="420" as="geometry" />
        </mxCell>
        <mxCell id="hN5I1lcWyQj-tZNHHUBt-6" value="" style="endArrow=classic;startArrow=classic;html=1;rounded=0;" edge="1" parent="hN5I1lcWyQj-tZNHHUBt-5">
          <mxGeometry width="50" height="50" relative="1" as="geometry">
            <mxPoint x="40" y="52" as="sourcePoint" />
            <mxPoint x="380" y="52" as="targetPoint" />
          </mxGeometry>
        </mxCell>
        <mxCell id="hN5I1lcWyQj-tZNHHUBt-7" value="" style="endArrow=classic;startArrow=classic;html=1;rounded=0;" edge="1" parent="hN5I1lcWyQj-tZNHHUBt-5">
          <mxGeometry width="50" height="50" relative="1" as="geometry">
            <mxPoint x="40" y="90" as="sourcePoint" />
            <mxPoint x="380" y="90" as="targetPoint" />
          </mxGeometry>
        </mxCell>
        <mxCell id="hN5I1lcWyQj-tZNHHUBt-8" value="" style="endArrow=classic;startArrow=classic;html=1;rounded=0;" edge="1" parent="hN5I1lcWyQj-tZNHHUBt-5">
          <mxGeometry width="50" height="50" relative="1" as="geometry">
            <mxPoint x="40" y="131" as="sourcePoint" />
            <mxPoint x="380" y="131" as="targetPoint" />
          </mxGeometry>
        </mxCell>
        <mxCell id="hN5I1lcWyQj-tZNHHUBt-9" value="Blog" style="text;html=1;strokeColor=none;fillColor=none;align=center;verticalAlign=middle;whiteSpace=wrap;rounded=0;" vertex="1" parent="hN5I1lcWyQj-tZNHHUBt-5">
          <mxGeometry x="190" y="20" width="60" height="30" as="geometry" />
        </mxCell>
        <mxCell id="hN5I1lcWyQj-tZNHHUBt-11" value="Projects" style="text;html=1;strokeColor=none;fillColor=none;align=center;verticalAlign=middle;whiteSpace=wrap;rounded=0;" vertex="1" parent="hN5I1lcWyQj-tZNHHUBt-5">
          <mxGeometry x="190" y="60" width="60" height="30" as="geometry" />
        </mxCell>
        <mxCell id="hN5I1lcWyQj-tZNHHUBt-12" value="Template&#39;s configuration" style="text;html=1;strokeColor=none;fillColor=none;align=center;verticalAlign=middle;whiteSpace=wrap;rounded=0;" vertex="1" parent="hN5I1lcWyQj-tZNHHUBt-5">
          <mxGeometry x="151" y="100" width="140" height="30" as="geometry" />
        </mxCell>
        <mxCell id="hN5I1lcWyQj-tZNHHUBt-13" value="" style="endArrow=classic;startArrow=classic;html=1;rounded=0;" edge="1" parent="hN5I1lcWyQj-tZNHHUBt-5">
          <mxGeometry width="50" height="50" relative="1" as="geometry">
            <mxPoint x="30" y="291" as="sourcePoint" />
            <mxPoint x="370" y="291" as="targetPoint" />
          </mxGeometry>
        </mxCell>
        <mxCell id="hN5I1lcWyQj-tZNHHUBt-14" value="Components Inside the template" style="text;html=1;strokeColor=none;fillColor=none;align=center;verticalAlign=middle;whiteSpace=wrap;rounded=0;" vertex="1" parent="hN5I1lcWyQj-tZNHHUBt-5">
          <mxGeometry x="130" y="256" width="185" height="30" as="geometry" />
        </mxCell>
        <mxCell id="hN5I1lcWyQj-tZNHHUBt-15" value="Relacional" style="shape=cylinder3;whiteSpace=wrap;html=1;boundedLbl=1;backgroundOutline=1;size=15;" vertex="1" parent="hN5I1lcWyQj-tZNHHUBt-5">
          <mxGeometry x="413" y="45" width="80" height="100" as="geometry" />
        </mxCell>
        <mxCell id="hN5I1lcWyQj-tZNHHUBt-16" value="NoSQL" style="shape=cylinder3;whiteSpace=wrap;html=1;boundedLbl=1;backgroundOutline=1;size=15;" vertex="1" parent="hN5I1lcWyQj-tZNHHUBt-5">
          <mxGeometry x="423" y="231" width="60" height="80" as="geometry" />
        </mxCell>
        <mxCell id="hN5I1lcWyQj-tZNHHUBt-18" value="POST" style="text;html=1;strokeColor=#6c8ebf;fillColor=#dae8fc;align=center;verticalAlign=middle;whiteSpace=wrap;rounded=0;" vertex="1" parent="hN5I1lcWyQj-tZNHHUBt-5">
          <mxGeometry x="51" y="10" width="60" height="30" as="geometry" />
        </mxCell>
        <mxCell id="hN5I1lcWyQj-tZNHHUBt-17" value="POST" style="text;html=1;strokeColor=#6c8ebf;fillColor=#dae8fc;align=center;verticalAlign=middle;whiteSpace=wrap;rounded=0;" vertex="1" parent="hN5I1lcWyQj-tZNHHUBt-5">
          <mxGeometry x="31" y="241" width="60" height="30" as="geometry" />
        </mxCell>
        <mxCell id="hN5I1lcWyQj-tZNHHUBt-19" value="GET" style="text;html=1;strokeColor=#82b366;fillColor=#d5e8d4;align=center;verticalAlign=middle;whiteSpace=wrap;rounded=0;" vertex="1" parent="hN5I1lcWyQj-tZNHHUBt-5">
          <mxGeometry x="321" y="241" width="60" height="30" as="geometry" />
        </mxCell>
        <mxCell id="hN5I1lcWyQj-tZNHHUBt-20" value="GET" style="text;html=1;strokeColor=#82b366;fillColor=#d5e8d4;align=center;verticalAlign=middle;whiteSpace=wrap;rounded=0;" vertex="1" parent="hN5I1lcWyQj-tZNHHUBt-5">
          <mxGeometry x="321" y="10" width="60" height="30" as="geometry" />
        </mxCell>
      </root>
    </mxGraphModel>
  </diagram>
</mxfile>
